<svg id="visual" viewBox="0 0 900 600" width="900" height="600" xmlns="http://www.w3.org/2000/svg" xmlns:xlink="http://www.w3.org/1999/xlink" version="1.1"><rect x="0" y="0" width="900" height="600" fill="#002233"></rect><path d="M0 533L37.5 526.8C75 520.7 150 508.3 225 507.8C300 507.3 375 518.7 450 525.7C525 532.7 600 535.3 675 529.3C750 523.3 825 508.7 862.5 501.3L900 494L900 601L862.5 601C825 601 750 601 675 601C600 601 525 601 450 601C375 601 300 601 225 601C150 601 75 601 37.5 601L0 601Z" fill="#0087ca" stroke-linecap="round" stroke-linejoin="miter"></path></svg>